<mxfile host="app.diagrams.net" agent="Mozilla/5.0 (Windows NT 10.0; Win64; x64) AppleWebKit/537.36 (KHTML, like Gecko) Chrome/128.0.0.0 Safari/537.36 Edg/128.0.0.0" version="24.7.14">
  <diagram name="Página-1" id="cJT64IZ6DPPD1WsO8Lgg">
    <mxGraphModel grid="1" page="1" gridSize="10" guides="1" tooltips="1" connect="1" arrows="1" fold="1" pageScale="1" pageWidth="827" pageHeight="1169" math="0" shadow="0">
      <root>
        <mxCell id="0" />
        <mxCell id="1" parent="0" />
        <mxCell id="fAQe6UxSut2mTUSgpgVf-1" value="Browser" style="verticalAlign=top;align=left;spacingTop=8;spacingLeft=2;spacingRight=12;shape=cube;size=10;direction=south;fontStyle=4;html=1;whiteSpace=wrap;" vertex="1" parent="1">
          <mxGeometry x="50" y="730" width="250" height="410" as="geometry" />
        </mxCell>
        <mxCell id="fAQe6UxSut2mTUSgpgVf-2" value="Cadastro&lt;div&gt;na competicao&lt;/div&gt;" style="shape=module;align=left;spacingLeft=20;align=center;verticalAlign=top;whiteSpace=wrap;html=1;" vertex="1" parent="1">
          <mxGeometry x="105" y="780" width="100" height="50" as="geometry" />
        </mxCell>
        <mxCell id="fAQe6UxSut2mTUSgpgVf-4" value="Cadastra Local" style="shape=module;align=left;spacingLeft=20;align=center;verticalAlign=top;whiteSpace=wrap;html=1;" vertex="1" parent="1">
          <mxGeometry x="100" y="920" width="100" height="50" as="geometry" />
        </mxCell>
        <mxCell id="fAQe6UxSut2mTUSgpgVf-5" value="Cadastra competicao" style="shape=module;align=left;spacingLeft=20;align=center;verticalAlign=top;whiteSpace=wrap;html=1;" vertex="1" parent="1">
          <mxGeometry x="100" y="1060" width="100" height="50" as="geometry" />
        </mxCell>
        <mxCell id="fAQe6UxSut2mTUSgpgVf-6" value="Gera relatorio" style="shape=module;align=left;spacingLeft=20;align=center;verticalAlign=top;whiteSpace=wrap;html=1;" vertex="1" parent="1">
          <mxGeometry x="100" y="990" width="100" height="50" as="geometry" />
        </mxCell>
        <mxCell id="fAQe6UxSut2mTUSgpgVf-7" value="Servidor" style="verticalAlign=top;align=left;spacingTop=8;spacingLeft=2;spacingRight=12;shape=cube;size=10;direction=south;fontStyle=4;html=1;whiteSpace=wrap;" vertex="1" parent="1">
          <mxGeometry x="440" y="730" width="250" height="410" as="geometry" />
        </mxCell>
        <mxCell id="fAQe6UxSut2mTUSgpgVf-8" value="" style="line;strokeWidth=1;fillColor=none;align=left;verticalAlign=middle;spacingTop=-1;spacingLeft=3;spacingRight=3;rotatable=0;labelPosition=right;points=[];portConstraint=eastwest;strokeColor=inherit;" vertex="1" parent="1">
          <mxGeometry x="300" y="760" width="140" height="8" as="geometry" />
        </mxCell>
        <mxCell id="fAQe6UxSut2mTUSgpgVf-10" value="&lt;div&gt;&amp;lt;&amp;lt;HTTPS&amp;gt;&amp;gt;&lt;/div&gt;" style="text;align=center;fontStyle=1;verticalAlign=middle;spacingLeft=3;spacingRight=3;strokeColor=none;rotatable=0;points=[[0,0.5],[1,0.5]];portConstraint=eastwest;html=1;" vertex="1" parent="1">
          <mxGeometry x="330" y="734" width="80" height="26" as="geometry" />
        </mxCell>
        <mxCell id="fAQe6UxSut2mTUSgpgVf-11" value="Atleta" style="shape=module;align=left;spacingLeft=20;align=center;verticalAlign=top;whiteSpace=wrap;html=1;" vertex="1" parent="1">
          <mxGeometry x="515" y="780" width="100" height="50" as="geometry" />
        </mxCell>
        <mxCell id="fAQe6UxSut2mTUSgpgVf-13" value="" style="endArrow=open;endSize=12;dashed=1;html=1;rounded=0;exitX=1;exitY=0.5;exitDx=0;exitDy=0;entryX=0;entryY=0;entryDx=0;entryDy=35;entryPerimeter=0;" edge="1" parent="1" source="fAQe6UxSut2mTUSgpgVf-3" target="fAQe6UxSut2mTUSgpgVf-11">
          <mxGeometry width="160" relative="1" as="geometry">
            <mxPoint x="600" y="860" as="sourcePoint" />
            <mxPoint x="760" y="860" as="targetPoint" />
          </mxGeometry>
        </mxCell>
        <mxCell id="fAQe6UxSut2mTUSgpgVf-16" value="Administrador" style="shape=module;align=left;spacingLeft=20;align=center;verticalAlign=top;whiteSpace=wrap;html=1;" vertex="1" parent="1">
          <mxGeometry x="515" y="870" width="100" height="50" as="geometry" />
        </mxCell>
        <mxCell id="fAQe6UxSut2mTUSgpgVf-17" value="" style="endArrow=open;endSize=12;dashed=1;html=1;rounded=0;exitX=1;exitY=0.5;exitDx=0;exitDy=0;entryX=0;entryY=0;entryDx=0;entryDy=35;entryPerimeter=0;" edge="1" parent="1" source="fAQe6UxSut2mTUSgpgVf-6" target="fAQe6UxSut2mTUSgpgVf-16">
          <mxGeometry width="160" relative="1" as="geometry">
            <mxPoint x="215" y="1013" as="sourcePoint" />
            <mxPoint x="525" y="825" as="targetPoint" />
          </mxGeometry>
        </mxCell>
        <mxCell id="fAQe6UxSut2mTUSgpgVf-18" value="" style="endArrow=open;endSize=12;dashed=1;html=1;rounded=0;exitX=1;exitY=0.5;exitDx=0;exitDy=0;entryX=0;entryY=0;entryDx=0;entryDy=15;entryPerimeter=0;" edge="1" parent="1" source="fAQe6UxSut2mTUSgpgVf-4" target="fAQe6UxSut2mTUSgpgVf-16">
          <mxGeometry width="160" relative="1" as="geometry">
            <mxPoint x="225" y="1023" as="sourcePoint" />
            <mxPoint x="535" y="835" as="targetPoint" />
          </mxGeometry>
        </mxCell>
        <mxCell id="fAQe6UxSut2mTUSgpgVf-19" value="" style="endArrow=open;endSize=12;dashed=1;html=1;rounded=0;exitX=1;exitY=0.5;exitDx=0;exitDy=0;" edge="1" parent="1" source="fAQe6UxSut2mTUSgpgVf-2" target="fAQe6UxSut2mTUSgpgVf-11">
          <mxGeometry width="160" relative="1" as="geometry">
            <mxPoint x="235" y="1033" as="sourcePoint" />
            <mxPoint x="545" y="845" as="targetPoint" />
          </mxGeometry>
        </mxCell>
        <mxCell id="fAQe6UxSut2mTUSgpgVf-20" value="" style="endArrow=open;endSize=12;dashed=1;html=1;rounded=0;exitX=1;exitY=0.25;exitDx=0;exitDy=0;entryX=0;entryY=1;entryDx=10;entryDy=0;entryPerimeter=0;" edge="1" parent="1" source="fAQe6UxSut2mTUSgpgVf-5" target="fAQe6UxSut2mTUSgpgVf-16">
          <mxGeometry width="160" relative="1" as="geometry">
            <mxPoint x="205" y="1003" as="sourcePoint" />
            <mxPoint x="515" y="815" as="targetPoint" />
          </mxGeometry>
        </mxCell>
        <mxCell id="fAQe6UxSut2mTUSgpgVf-3" value="Visualiza&lt;div&gt;Inscrição&lt;/div&gt;" style="shape=module;align=left;spacingLeft=20;align=center;verticalAlign=top;whiteSpace=wrap;html=1;" vertex="1" parent="1">
          <mxGeometry x="100" y="850" width="100" height="50" as="geometry" />
        </mxCell>
        <mxCell id="fAQe6UxSut2mTUSgpgVf-21" value="Banco de dados" style="verticalAlign=top;align=left;spacingTop=8;spacingLeft=2;spacingRight=12;shape=cube;size=10;direction=south;fontStyle=4;html=1;whiteSpace=wrap;" vertex="1" parent="1">
          <mxGeometry x="810" y="730" width="250" height="410" as="geometry" />
        </mxCell>
        <mxCell id="fAQe6UxSut2mTUSgpgVf-22" value="Persistencia" style="shape=module;align=left;spacingLeft=20;align=center;verticalAlign=top;whiteSpace=wrap;html=1;" vertex="1" parent="1">
          <mxGeometry x="840" y="970" width="100" height="50" as="geometry" />
        </mxCell>
        <mxCell id="fAQe6UxSut2mTUSgpgVf-23" value="SGBD" style="shape=module;align=left;spacingLeft=20;align=center;verticalAlign=top;whiteSpace=wrap;html=1;" vertex="1" parent="1">
          <mxGeometry x="910" y="820" width="100" height="50" as="geometry" />
        </mxCell>
        <mxCell id="fAQe6UxSut2mTUSgpgVf-25" value="" style="endArrow=open;endSize=12;dashed=1;html=1;rounded=0;exitX=1;exitY=0.25;exitDx=0;exitDy=0;entryX=0;entryY=0;entryDx=0;entryDy=35;entryPerimeter=0;" edge="1" parent="1" source="fAQe6UxSut2mTUSgpgVf-16" target="fAQe6UxSut2mTUSgpgVf-23">
          <mxGeometry width="160" relative="1" as="geometry">
            <mxPoint x="625" y="905" as="sourcePoint" />
            <mxPoint x="850" y="1015" as="targetPoint" />
          </mxGeometry>
        </mxCell>
        <mxCell id="fAQe6UxSut2mTUSgpgVf-26" value="" style="endArrow=open;endSize=12;dashed=1;html=1;rounded=0;exitX=1;exitY=0.5;exitDx=0;exitDy=0;entryX=0;entryY=0;entryDx=0;entryDy=15;entryPerimeter=0;" edge="1" parent="1" source="fAQe6UxSut2mTUSgpgVf-11" target="fAQe6UxSut2mTUSgpgVf-23">
          <mxGeometry width="160" relative="1" as="geometry">
            <mxPoint x="635" y="915" as="sourcePoint" />
            <mxPoint x="860" y="1025" as="targetPoint" />
          </mxGeometry>
        </mxCell>
        <mxCell id="fAQe6UxSut2mTUSgpgVf-27" value="" style="endArrow=open;endSize=12;dashed=1;html=1;rounded=0;exitX=0.75;exitY=1;exitDx=0;exitDy=0;entryX=1;entryY=0;entryDx=0;entryDy=0;" edge="1" parent="1" source="fAQe6UxSut2mTUSgpgVf-23" target="fAQe6UxSut2mTUSgpgVf-22">
          <mxGeometry width="160" relative="1" as="geometry">
            <mxPoint x="645" y="925" as="sourcePoint" />
            <mxPoint x="870" y="1035" as="targetPoint" />
          </mxGeometry>
        </mxCell>
        <mxCell id="fAQe6UxSut2mTUSgpgVf-28" value="" style="endArrow=open;endSize=12;dashed=1;html=1;rounded=0;exitX=0.5;exitY=0;exitDx=0;exitDy=0;entryX=0.5;entryY=1;entryDx=0;entryDy=0;" edge="1" parent="1" source="fAQe6UxSut2mTUSgpgVf-22" target="fAQe6UxSut2mTUSgpgVf-23">
          <mxGeometry width="160" relative="1" as="geometry">
            <mxPoint x="655" y="935" as="sourcePoint" />
            <mxPoint x="880" y="1045" as="targetPoint" />
          </mxGeometry>
        </mxCell>
      </root>
    </mxGraphModel>
  </diagram>
</mxfile>
